<mxfile host="app.diagrams.net" modified="2021-09-27T05:53:29.491Z" agent="5.0 (Windows NT 10.0; Win64; x64) AppleWebKit/537.36 (KHTML, like Gecko) Chrome/93.0.4577.82 Safari/537.36" etag="tKDtcav7lI7hBynHDUlv" version="15.2.7" type="github">
  <diagram id="-qQmnSuaz_8kOr81CJE3" name="Page-1">
    <mxGraphModel dx="1102" dy="586" grid="1" gridSize="10" guides="1" tooltips="1" connect="1" arrows="1" fold="1" page="1" pageScale="1" pageWidth="850" pageHeight="1100" math="0" shadow="0">
      <root>
        <mxCell id="0" />
        <mxCell id="1" parent="0" />
        <mxCell id="Kuz-DY05xD_UV_b3n480-3" value="Fading &amp;amp; Destroy Objects" style="text;strokeColor=none;fillColor=none;html=1;fontSize=24;fontStyle=1;verticalAlign=middle;align=center;" parent="1" vertex="1">
          <mxGeometry x="277" y="60" width="310" height="30" as="geometry" />
        </mxCell>
        <mxCell id="Kuz-DY05xD_UV_b3n480-4" value="Alpha =1" style="rhombus;whiteSpace=wrap;html=1;" parent="1" vertex="1">
          <mxGeometry x="359" y="210" width="80" height="80" as="geometry" />
        </mxCell>
        <mxCell id="Kuz-DY05xD_UV_b3n480-6" value="" style="endArrow=classic;html=1;exitX=0.5;exitY=1;exitDx=0;exitDy=0;entryX=0.5;entryY=0;entryDx=0;entryDy=0;" parent="1" source="Kuz-DY05xD_UV_b3n480-4" target="Kuz-DY05xD_UV_b3n480-7" edge="1">
          <mxGeometry width="50" height="50" relative="1" as="geometry">
            <mxPoint x="389" y="460" as="sourcePoint" />
            <mxPoint x="399" y="387" as="targetPoint" />
          </mxGeometry>
        </mxCell>
        <mxCell id="Kuz-DY05xD_UV_b3n480-7" value="Alpha &amp;gt; 0" style="rhombus;whiteSpace=wrap;html=1;" parent="1" vertex="1">
          <mxGeometry x="359" y="320" width="80" height="80" as="geometry" />
        </mxCell>
        <mxCell id="Kuz-DY05xD_UV_b3n480-8" value="" style="endArrow=classic;html=1;exitX=0.5;exitY=1;exitDx=0;exitDy=0;entryX=0.5;entryY=0;entryDx=0;entryDy=0;" parent="1" source="Kuz-DY05xD_UV_b3n480-7" target="Kuz-DY05xD_UV_b3n480-11" edge="1">
          <mxGeometry width="50" height="50" relative="1" as="geometry">
            <mxPoint x="389" y="460" as="sourcePoint" />
            <mxPoint x="399" y="460" as="targetPoint" />
          </mxGeometry>
        </mxCell>
        <mxCell id="Kuz-DY05xD_UV_b3n480-11" value="Alpha-=1" style="rhombus;whiteSpace=wrap;html=1;" parent="1" vertex="1">
          <mxGeometry x="359" y="460" width="80" height="80" as="geometry" />
        </mxCell>
        <mxCell id="Kuz-DY05xD_UV_b3n480-15" value="" style="endArrow=classic;html=1;entryX=0;entryY=0.5;entryDx=0;entryDy=0;exitX=0;exitY=0.5;exitDx=0;exitDy=0;" parent="1" source="Kuz-DY05xD_UV_b3n480-11" target="Kuz-DY05xD_UV_b3n480-7" edge="1">
          <mxGeometry width="50" height="50" relative="1" as="geometry">
            <mxPoint x="389" y="460" as="sourcePoint" />
            <mxPoint x="439" y="410" as="targetPoint" />
            <Array as="points">
              <mxPoint x="299" y="500" />
              <mxPoint x="299" y="360" />
            </Array>
          </mxGeometry>
        </mxCell>
        <mxCell id="Kuz-DY05xD_UV_b3n480-16" value="" style="endArrow=classic;html=1;exitX=1;exitY=0.5;exitDx=0;exitDy=0;entryX=0.5;entryY=0;entryDx=0;entryDy=0;" parent="1" source="Kuz-DY05xD_UV_b3n480-7" target="Kuz-DY05xD_UV_b3n480-19" edge="1">
          <mxGeometry width="50" height="50" relative="1" as="geometry">
            <mxPoint x="389" y="460" as="sourcePoint" />
            <mxPoint x="519" y="520" as="targetPoint" />
            <Array as="points">
              <mxPoint x="519" y="360" />
            </Array>
          </mxGeometry>
        </mxCell>
        <mxCell id="Kuz-DY05xD_UV_b3n480-17" value="True" style="text;html=1;strokeColor=none;fillColor=none;align=center;verticalAlign=middle;whiteSpace=wrap;rounded=0;" parent="1" vertex="1">
          <mxGeometry x="394" y="400" width="40" height="20" as="geometry" />
        </mxCell>
        <mxCell id="Kuz-DY05xD_UV_b3n480-18" value="False" style="text;html=1;strokeColor=none;fillColor=none;align=center;verticalAlign=middle;whiteSpace=wrap;rounded=0;" parent="1" vertex="1">
          <mxGeometry x="440" y="340" width="40" height="20" as="geometry" />
        </mxCell>
        <mxCell id="Kuz-DY05xD_UV_b3n480-19" value="Destroy&amp;nbsp;" style="rhombus;whiteSpace=wrap;html=1;" parent="1" vertex="1">
          <mxGeometry x="480" y="500" width="80" height="80" as="geometry" />
        </mxCell>
        <mxCell id="Kuz-DY05xD_UV_b3n480-20" value="Entry" style="rounded=0;whiteSpace=wrap;html=1;" parent="1" vertex="1">
          <mxGeometry x="354" y="150" width="90" height="30" as="geometry" />
        </mxCell>
        <mxCell id="Kuz-DY05xD_UV_b3n480-21" value="" style="endArrow=classic;html=1;exitX=0.5;exitY=1;exitDx=0;exitDy=0;entryX=0.5;entryY=0;entryDx=0;entryDy=0;" parent="1" source="Kuz-DY05xD_UV_b3n480-20" target="Kuz-DY05xD_UV_b3n480-4" edge="1">
          <mxGeometry width="50" height="50" relative="1" as="geometry">
            <mxPoint x="395" y="340" as="sourcePoint" />
            <mxPoint x="445" y="290" as="targetPoint" />
          </mxGeometry>
        </mxCell>
        <mxCell id="Kuz-DY05xD_UV_b3n480-22" value="Exit" style="rounded=0;whiteSpace=wrap;html=1;" parent="1" vertex="1">
          <mxGeometry x="475" y="600" width="90" height="30" as="geometry" />
        </mxCell>
        <mxCell id="Kuz-DY05xD_UV_b3n480-23" value="" style="endArrow=classic;html=1;exitX=0.5;exitY=1;exitDx=0;exitDy=0;" parent="1" source="Kuz-DY05xD_UV_b3n480-19" target="Kuz-DY05xD_UV_b3n480-22" edge="1">
          <mxGeometry width="50" height="50" relative="1" as="geometry">
            <mxPoint x="395" y="420" as="sourcePoint" />
            <mxPoint x="445" y="370" as="targetPoint" />
          </mxGeometry>
        </mxCell>
        <mxCell id="cNdg4cGR2haqPQCxXatW-1" value="" style="endArrow=none;html=1;" edge="1" parent="1">
          <mxGeometry width="50" height="50" relative="1" as="geometry">
            <mxPoint x="160" y="682" as="sourcePoint" />
            <mxPoint x="160" y="50" as="targetPoint" />
          </mxGeometry>
        </mxCell>
        <mxCell id="cNdg4cGR2haqPQCxXatW-2" value="" style="endArrow=none;html=1;" edge="1" parent="1">
          <mxGeometry width="50" height="50" relative="1" as="geometry">
            <mxPoint x="160" y="680" as="sourcePoint" />
            <mxPoint x="720" y="680" as="targetPoint" />
          </mxGeometry>
        </mxCell>
        <mxCell id="cNdg4cGR2haqPQCxXatW-3" value="" style="endArrow=none;html=1;" edge="1" parent="1">
          <mxGeometry width="50" height="50" relative="1" as="geometry">
            <mxPoint x="720" y="682" as="sourcePoint" />
            <mxPoint x="720" y="50" as="targetPoint" />
          </mxGeometry>
        </mxCell>
        <mxCell id="cNdg4cGR2haqPQCxXatW-4" value="" style="endArrow=none;html=1;" edge="1" parent="1">
          <mxGeometry width="50" height="50" relative="1" as="geometry">
            <mxPoint x="160" y="50" as="sourcePoint" />
            <mxPoint x="720" y="50" as="targetPoint" />
          </mxGeometry>
        </mxCell>
        <mxCell id="cNdg4cGR2haqPQCxXatW-5" value="" style="endArrow=none;html=1;" edge="1" parent="1">
          <mxGeometry width="50" height="50" relative="1" as="geometry">
            <mxPoint x="160" y="100" as="sourcePoint" />
            <mxPoint x="720" y="100" as="targetPoint" />
          </mxGeometry>
        </mxCell>
      </root>
    </mxGraphModel>
  </diagram>
</mxfile>
